<svg width="743" height="196" viewBox="0 0 743 196" fill="none" xmlns="http://www.w3.org/2000/svg">
<rect width="743" height="196" fill="#333333"/>
<path d="M39.18 83.804C40.7053 83.804 42.0693 84.024 43.272 84.464C44.504 84.8747 45.5307 85.4613 46.352 86.224C47.1733 86.9573 47.804 87.8373 48.244 88.864C48.684 89.8613 48.904 90.9613 48.904 92.164C48.904 93.7773 48.464 95.2 47.584 96.432C46.704 97.6347 45.6187 98.4413 44.328 98.852C45.032 99.028 45.7067 99.3213 46.352 99.732C47.0267 100.113 47.628 100.612 48.156 101.228C48.684 101.844 49.0947 102.577 49.388 103.428C49.7107 104.249 49.872 105.159 49.872 106.156C49.872 107.447 49.6373 108.635 49.168 109.72C48.6987 110.776 48.0387 111.7 47.188 112.492C46.3373 113.284 45.3107 113.9 44.108 114.34C42.9053 114.78 41.5707 115 40.104 115H27.52V83.804H39.18ZM38.08 96.3C39.312 96.3 40.28 96.0067 40.984 95.42C41.7173 94.804 42.084 93.968 42.084 92.912C42.084 91.8853 41.7467 91.0787 41.072 90.492C40.3973 89.876 39.3707 89.568 37.992 89.568H34.296V96.3H38.08ZM38.652 109.324C40.0013 109.324 41.0573 109.001 41.82 108.356C42.5827 107.681 42.964 106.787 42.964 105.672C42.964 104.587 42.5827 103.707 41.82 103.032C41.0867 102.357 40.0307 102.02 38.652 102.02H34.296V109.324H38.652ZM65.7959 101.448C65.7665 101.037 65.6639 100.612 65.4879 100.172C65.3412 99.732 65.0919 99.336 64.7399 98.984C64.3879 98.632 63.9332 98.3387 63.3759 98.104C62.8479 97.8693 62.1879 97.752 61.3959 97.752C60.6919 97.752 60.0759 97.8693 59.5479 98.104C59.0199 98.3387 58.5652 98.632 58.1839 98.984C57.8319 99.336 57.5532 99.732 57.3479 100.172C57.1719 100.612 57.0692 101.037 57.0399 101.448H65.7959ZM71.8679 108.708C71.6039 109.647 71.1932 110.541 70.6359 111.392C70.0785 112.243 69.3745 112.991 68.5239 113.636C67.6732 114.252 66.6759 114.736 65.5319 115.088C64.4172 115.469 63.1705 115.66 61.7919 115.66C60.2959 115.66 58.8585 115.396 57.4799 114.868C56.1012 114.34 54.8839 113.577 53.8279 112.58C52.7719 111.583 51.9359 110.365 51.3199 108.928C50.7039 107.491 50.3959 105.848 50.3959 104C50.3959 102.24 50.6892 100.656 51.2759 99.248C51.8919 97.8107 52.6985 96.5933 53.6959 95.596C54.7225 94.5987 55.8959 93.836 57.2159 93.308C58.5359 92.7507 59.8999 92.472 61.3079 92.472C64.7105 92.472 67.3799 93.4547 69.3159 95.42C71.2812 97.3853 72.2639 100.143 72.2639 103.692C72.2639 104.161 72.2492 104.616 72.2199 105.056C72.1905 105.467 72.1612 105.701 72.1319 105.76H56.9079C56.9372 106.376 57.0839 106.948 57.3479 107.476C57.6412 107.975 58.0079 108.415 58.4479 108.796C58.9172 109.177 59.4452 109.471 60.0319 109.676C60.6185 109.881 61.2345 109.984 61.8799 109.984C63.1119 109.984 64.0652 109.72 64.7399 109.192C65.4439 108.664 65.9572 107.975 66.2799 107.124L71.8679 108.708ZM84.2896 98.632C83.5856 98.632 82.9256 98.7493 82.3096 98.984C81.723 99.2187 81.195 99.5707 80.7256 100.04C80.2856 100.509 79.9336 101.081 79.6696 101.756C79.4056 102.431 79.2736 103.208 79.2736 104.088C79.2736 104.968 79.4056 105.745 79.6696 106.42C79.963 107.065 80.3296 107.623 80.7696 108.092C81.239 108.561 81.7816 108.913 82.3976 109.148C83.0136 109.383 83.6736 109.5 84.3776 109.5C85.6683 109.5 86.6803 109.163 87.4136 108.488C88.1763 107.813 88.675 107.065 88.9096 106.244L94.8056 108.048C94.571 109.016 94.1603 109.955 93.5736 110.864C93.0163 111.773 92.2976 112.58 91.4176 113.284C90.5376 113.988 89.511 114.56 88.3376 115C87.1643 115.44 85.8443 115.66 84.3776 115.66C82.735 115.66 81.195 115.381 79.7576 114.824C78.3496 114.237 77.1176 113.431 76.0616 112.404C75.0056 111.377 74.1696 110.16 73.5536 108.752C72.9376 107.344 72.6296 105.789 72.6296 104.088C72.6296 102.387 72.923 100.832 73.5096 99.424C74.1256 97.9867 74.947 96.7547 75.9736 95.728C77.0296 94.7013 78.247 93.9093 79.6256 93.352C81.0336 92.7653 82.5443 92.472 84.1576 92.472C85.6536 92.472 87.003 92.692 88.2056 93.132C89.4083 93.5427 90.4496 94.1 91.3296 94.804C92.2096 95.508 92.9283 96.3293 93.4856 97.268C94.043 98.1773 94.439 99.116 94.6736 100.084L88.6896 101.888C88.5723 101.477 88.3963 101.081 88.1616 100.7C87.927 100.289 87.6336 99.9373 87.2816 99.644C86.9296 99.3213 86.5043 99.072 86.0056 98.896C85.507 98.72 84.935 98.632 84.2896 98.632ZM106.35 109.5C106.996 109.5 107.612 109.397 108.198 109.192C108.785 108.957 109.298 108.62 109.738 108.18C110.208 107.711 110.574 107.139 110.838 106.464C111.132 105.789 111.278 104.983 111.278 104.044C111.278 103.135 111.132 102.343 110.838 101.668C110.574 100.964 110.208 100.392 109.738 99.952C109.298 99.512 108.785 99.1893 108.198 98.984C107.612 98.7493 106.996 98.632 106.35 98.632C105.734 98.632 105.118 98.7493 104.502 98.984C103.916 99.1893 103.388 99.512 102.918 99.952C102.478 100.392 102.112 100.964 101.818 101.668C101.554 102.343 101.422 103.135 101.422 104.044C101.422 104.953 101.554 105.76 101.818 106.464C102.112 107.139 102.478 107.711 102.918 108.18C103.388 108.62 103.916 108.957 104.502 109.192C105.118 109.397 105.734 109.5 106.35 109.5ZM106.35 92.472C107.993 92.472 109.518 92.7653 110.926 93.352C112.334 93.9093 113.552 94.7013 114.578 95.728C115.634 96.7547 116.456 97.972 117.042 99.38C117.658 100.788 117.966 102.343 117.966 104.044C117.966 105.745 117.658 107.315 117.042 108.752C116.456 110.16 115.634 111.377 114.578 112.404C113.552 113.431 112.334 114.237 110.926 114.824C109.518 115.381 107.993 115.66 106.35 115.66C104.708 115.66 103.182 115.381 101.774 114.824C100.366 114.237 99.1345 113.431 98.0785 112.404C97.0518 111.377 96.2305 110.16 95.6145 108.752C95.0278 107.315 94.7345 105.745 94.7345 104.044C94.7345 102.343 95.0278 100.788 95.6145 99.38C96.2305 97.972 97.0518 96.7547 98.0785 95.728C99.1345 94.7013 100.366 93.9093 101.774 93.352C103.182 92.7653 104.708 92.472 106.35 92.472ZM119.489 115V93.132H125.869V95.64C126.133 95.1707 126.5 94.7453 126.969 94.364C127.439 93.9533 127.952 93.616 128.509 93.352C129.096 93.0587 129.697 92.8387 130.313 92.692C130.959 92.5453 131.575 92.472 132.161 92.472C133.745 92.472 135.08 92.78 136.165 93.396C137.251 93.9827 138.072 94.8187 138.629 95.904C139.48 94.672 140.448 93.792 141.533 93.264C142.619 92.736 143.909 92.472 145.405 92.472C146.432 92.472 147.429 92.6333 148.397 92.956C149.395 93.2493 150.26 93.7333 150.993 94.408C151.756 95.0827 152.357 95.948 152.797 97.004C153.267 98.06 153.501 99.336 153.501 100.832V115H147.033V102.328C147.033 101.301 146.755 100.436 146.197 99.732C145.64 98.9987 144.76 98.632 143.557 98.632C142.355 98.632 141.445 99.0133 140.829 99.776C140.213 100.539 139.905 101.404 139.905 102.372V115H133.305V102.328C133.305 101.301 133.027 100.436 132.469 99.732C131.912 98.9987 131.017 98.632 129.785 98.632C128.612 98.632 127.717 99.0133 127.101 99.776C126.485 100.539 126.177 101.419 126.177 102.416V115H119.489ZM156.118 115V93.132H162.806V115H156.118ZM155.546 86.444C155.546 85.916 155.648 85.4173 155.854 84.948C156.059 84.4493 156.338 84.024 156.69 83.672C157.042 83.32 157.452 83.0413 157.922 82.836C158.391 82.6307 158.89 82.528 159.418 82.528C160.532 82.528 161.471 82.9093 162.234 83.672C162.996 84.4347 163.378 85.3587 163.378 86.444C163.378 87.5293 162.996 88.4533 162.234 89.216C161.471 89.9787 160.532 90.36 159.418 90.36C158.89 90.36 158.391 90.2573 157.922 90.052C157.452 89.8467 157.042 89.568 156.69 89.216C156.338 88.864 156.059 88.4533 155.854 87.984C155.648 87.4853 155.546 86.972 155.546 86.444ZM172.278 115H165.59V93.132H172.058V95.64C172.351 95.112 172.732 94.6573 173.202 94.276C173.671 93.8947 174.17 93.5867 174.698 93.352C175.255 93.088 175.827 92.8973 176.414 92.78C177.03 92.6333 177.616 92.56 178.174 92.56C179.552 92.56 180.74 92.7947 181.738 93.264C182.735 93.704 183.556 94.32 184.202 95.112C184.876 95.904 185.36 96.828 185.654 97.884C185.976 98.94 186.138 100.069 186.138 101.272V115H179.45V102.416C179.45 101.331 179.156 100.436 178.57 99.732C178.012 98.9987 177.118 98.632 175.886 98.632C174.771 98.632 173.891 98.9987 173.246 99.732C172.6 100.436 172.278 101.345 172.278 102.46V115ZM193.347 114.56C193.581 115.616 194.109 116.481 194.931 117.156C195.752 117.86 196.793 118.212 198.055 118.212C199.727 118.212 201.047 117.772 202.015 116.892C202.983 116.041 203.467 114.619 203.467 112.624V111.612C203.056 112.199 202.367 112.756 201.399 113.284C200.46 113.812 199.199 114.076 197.615 114.076C196.148 114.076 194.799 113.812 193.567 113.284C192.335 112.727 191.264 111.979 190.355 111.04C189.445 110.072 188.727 108.943 188.199 107.652C187.7 106.361 187.451 104.953 187.451 103.428C187.451 101.991 187.7 100.627 188.199 99.336C188.697 98.0453 189.387 96.916 190.267 95.948C191.176 94.9507 192.247 94.1733 193.479 93.616C194.74 93.0293 196.119 92.736 197.615 92.736C198.495 92.736 199.272 92.824 199.947 93C200.651 93.176 201.252 93.396 201.751 93.66C202.249 93.924 202.66 94.2173 202.983 94.54C203.305 94.8627 203.54 95.1707 203.687 95.464V93.132H210.067V112.272C210.067 113.856 209.832 115.352 209.363 116.76C208.923 118.168 208.219 119.415 207.251 120.5C206.312 121.585 205.109 122.436 203.643 123.052C202.176 123.697 200.416 124.02 198.363 124.02C196.779 124.02 195.341 123.8 194.051 123.36C192.789 122.92 191.689 122.333 190.751 121.6C189.841 120.867 189.093 120.031 188.507 119.092C187.949 118.153 187.597 117.2 187.451 116.232L193.347 114.56ZM198.847 108.268C200.225 108.268 201.34 107.843 202.191 106.992C203.071 106.112 203.511 104.924 203.511 103.428C203.511 102.695 203.379 102.035 203.115 101.448C202.88 100.832 202.543 100.319 202.103 99.908C201.692 99.468 201.193 99.1453 200.607 98.94C200.049 98.7053 199.463 98.588 198.847 98.588C198.231 98.588 197.629 98.7053 197.043 98.94C196.485 99.1453 195.987 99.468 195.547 99.908C195.107 100.319 194.755 100.832 194.491 101.448C194.256 102.035 194.139 102.695 194.139 103.428C194.139 104.924 194.579 106.112 195.459 106.992C196.368 107.843 197.497 108.268 198.847 108.268ZM219.029 108.972C219.029 108.004 219.19 107.139 219.513 106.376C219.865 105.613 220.334 104.968 220.921 104.44C221.507 103.883 222.182 103.443 222.945 103.12C223.737 102.768 224.587 102.519 225.497 102.372L230.645 101.58C231.231 101.492 231.642 101.316 231.877 101.052C232.111 100.788 232.229 100.465 232.229 100.084C232.229 99.4387 231.95 98.8813 231.393 98.412C230.865 97.9427 230.073 97.708 229.017 97.708C227.843 97.708 226.934 98.0453 226.289 98.72C225.673 99.3653 225.335 100.099 225.277 100.92L219.469 99.732C219.527 98.94 219.762 98.1187 220.173 97.268C220.583 96.4173 221.17 95.64 221.933 94.936C222.725 94.232 223.707 93.6453 224.881 93.176C226.054 92.7067 227.447 92.472 229.061 92.472C230.821 92.472 232.317 92.7067 233.549 93.176C234.781 93.616 235.778 94.232 236.541 95.024C237.333 95.7867 237.89 96.6813 238.213 97.708C238.565 98.7347 238.741 99.8053 238.741 100.92V111.612C238.741 112.463 238.77 113.211 238.829 113.856C238.917 114.501 238.975 114.883 239.005 115H232.977C232.947 114.912 232.903 114.677 232.845 114.296C232.786 113.885 232.757 113.299 232.757 112.536C232.17 113.475 231.363 114.223 230.337 114.78C229.31 115.337 228.063 115.616 226.597 115.616C225.394 115.616 224.323 115.425 223.385 115.044C222.446 114.692 221.654 114.208 221.009 113.592C220.363 112.976 219.865 112.272 219.513 111.48C219.19 110.688 219.029 109.852 219.029 108.972ZM228.225 110.776C228.723 110.776 229.207 110.717 229.677 110.6C230.175 110.453 230.601 110.219 230.953 109.896C231.334 109.544 231.642 109.089 231.877 108.532C232.111 107.975 232.229 107.271 232.229 106.42V105.452L228.093 106.112C227.389 106.229 226.802 106.479 226.333 106.86C225.863 107.212 225.629 107.769 225.629 108.532C225.629 109.119 225.819 109.647 226.201 110.116C226.611 110.556 227.286 110.776 228.225 110.776ZM249.404 115V83.804H269.512V90.404H256.356V97.004H267.928V103.34H256.4V115H249.404ZM284.37 115C284.311 114.795 284.267 114.457 284.238 113.988C284.209 113.489 284.194 113.093 284.194 112.8C283.607 113.739 282.757 114.428 281.642 114.868C280.557 115.279 279.457 115.484 278.342 115.484C277.022 115.484 275.834 115.264 274.778 114.824C273.751 114.355 272.886 113.739 272.182 112.976C271.478 112.184 270.935 111.275 270.554 110.248C270.202 109.221 270.026 108.121 270.026 106.948V93.132H276.714V105.54C276.714 106.596 276.993 107.491 277.55 108.224C278.137 108.957 279.031 109.324 280.234 109.324C281.349 109.324 282.229 108.987 282.874 108.312C283.549 107.608 283.886 106.699 283.886 105.584V93.132H290.574V111.084C290.574 112.081 290.603 112.947 290.662 113.68C290.721 114.384 290.765 114.824 290.794 115H284.37ZM293.382 115V83.144H300.07V115H293.382ZM302.854 115V83.144H309.542V115H302.854ZM335.753 93.22C335.694 92.868 335.562 92.472 335.357 92.032C335.181 91.5627 334.887 91.1373 334.477 90.756C334.095 90.3453 333.582 90.008 332.937 89.744C332.291 89.4507 331.499 89.304 330.561 89.304C329.27 89.304 328.229 89.656 327.437 90.36C326.674 91.0347 326.293 91.7973 326.293 92.648C326.293 93.4107 326.527 94.056 326.997 94.584C327.495 95.0827 328.287 95.4347 329.373 95.64L333.553 96.432C335.049 96.696 336.354 97.136 337.469 97.752C338.583 98.3387 339.522 99.0427 340.285 99.864C341.047 100.685 341.619 101.609 342.001 102.636C342.382 103.633 342.573 104.689 342.573 105.804C342.573 107.036 342.323 108.239 341.825 109.412C341.326 110.585 340.578 111.641 339.581 112.58C338.613 113.489 337.41 114.237 335.973 114.824C334.535 115.381 332.893 115.66 331.045 115.66C328.874 115.66 327.011 115.352 325.457 114.736C323.902 114.091 322.611 113.284 321.585 112.316C320.558 111.348 319.781 110.277 319.253 109.104C318.725 107.931 318.402 106.787 318.285 105.672L324.665 104.132C324.723 104.836 324.885 105.525 325.149 106.2C325.442 106.845 325.853 107.417 326.381 107.916C326.909 108.385 327.569 108.767 328.361 109.06C329.153 109.353 330.077 109.5 331.133 109.5C332.511 109.5 333.582 109.207 334.345 108.62C335.137 108.004 335.533 107.212 335.533 106.244C335.533 105.452 335.225 104.792 334.609 104.264C334.022 103.707 333.215 103.325 332.189 103.12L327.921 102.328C325.251 101.829 323.169 100.759 321.673 99.116C320.177 97.4733 319.429 95.4933 319.429 93.176C319.429 91.7093 319.722 90.36 320.309 89.128C320.925 87.896 321.746 86.84 322.773 85.96C323.799 85.08 324.987 84.3907 326.337 83.892C327.686 83.3933 329.109 83.144 330.605 83.144C332.541 83.144 334.198 83.408 335.577 83.936C336.955 84.464 338.085 85.1387 338.965 85.96C339.874 86.752 340.563 87.6467 341.033 88.644C341.502 89.612 341.825 90.5507 342.001 91.46L335.753 93.22ZM352.353 93.132H356.621V98.984H352.353V107.168C352.353 108.077 352.573 108.693 353.013 109.016C353.453 109.309 354.04 109.456 354.773 109.456C355.125 109.456 355.448 109.441 355.741 109.412C356.064 109.353 356.328 109.295 356.533 109.236V114.78C356.386 114.839 356.034 114.956 355.477 115.132C354.92 115.308 354.113 115.396 353.057 115.396C350.769 115.396 348.98 114.78 347.689 113.548C346.398 112.287 345.753 110.556 345.753 108.356V98.984H341.881V93.132H342.981C344.125 93.132 344.976 92.7947 345.533 92.12C346.09 91.4453 346.369 90.5947 346.369 89.568V86.752H352.353V93.132ZM357.085 108.972C357.085 108.004 357.247 107.139 357.569 106.376C357.921 105.613 358.391 104.968 358.977 104.44C359.564 103.883 360.239 103.443 361.001 103.12C361.793 102.768 362.644 102.519 363.553 102.372L368.701 101.58C369.288 101.492 369.699 101.316 369.933 101.052C370.168 100.788 370.285 100.465 370.285 100.084C370.285 99.4387 370.007 98.8813 369.449 98.412C368.921 97.9427 368.129 97.708 367.073 97.708C365.9 97.708 364.991 98.0453 364.345 98.72C363.729 99.3653 363.392 100.099 363.333 100.92L357.525 99.732C357.584 98.94 357.819 98.1187 358.229 97.268C358.64 96.4173 359.227 95.64 359.989 94.936C360.781 94.232 361.764 93.6453 362.937 93.176C364.111 92.7067 365.504 92.472 367.117 92.472C368.877 92.472 370.373 92.7067 371.605 93.176C372.837 93.616 373.835 94.232 374.597 95.024C375.389 95.7867 375.947 96.6813 376.269 97.708C376.621 98.7347 376.797 99.8053 376.797 100.92V111.612C376.797 112.463 376.827 113.211 376.885 113.856C376.973 114.501 377.032 114.883 377.061 115H371.033C371.004 114.912 370.96 114.677 370.901 114.296C370.843 113.885 370.813 113.299 370.813 112.536C370.227 113.475 369.42 114.223 368.393 114.78C367.367 115.337 366.12 115.616 364.653 115.616C363.451 115.616 362.38 115.425 361.441 115.044C360.503 114.692 359.711 114.208 359.065 113.592C358.42 112.976 357.921 112.272 357.569 111.48C357.247 110.688 357.085 109.852 357.085 108.972ZM366.281 110.776C366.78 110.776 367.264 110.717 367.733 110.6C368.232 110.453 368.657 110.219 369.009 109.896C369.391 109.544 369.699 109.089 369.933 108.532C370.168 107.975 370.285 107.271 370.285 106.42V105.452L366.149 106.112C365.445 106.229 364.859 106.479 364.389 106.86C363.92 107.212 363.685 107.769 363.685 108.532C363.685 109.119 363.876 109.647 364.257 110.116C364.668 110.556 365.343 110.776 366.281 110.776ZM389.818 98.632C389.114 98.632 388.454 98.7493 387.838 98.984C387.251 99.2187 386.723 99.5707 386.254 100.04C385.814 100.509 385.462 101.081 385.198 101.756C384.934 102.431 384.802 103.208 384.802 104.088C384.802 104.968 384.934 105.745 385.198 106.42C385.491 107.065 385.858 107.623 386.298 108.092C386.767 108.561 387.31 108.913 387.926 109.148C388.542 109.383 389.202 109.5 389.906 109.5C391.197 109.5 392.209 109.163 392.942 108.488C393.705 107.813 394.203 107.065 394.438 106.244L400.334 108.048C400.099 109.016 399.689 109.955 399.102 110.864C398.545 111.773 397.826 112.58 396.946 113.284C396.066 113.988 395.039 114.56 393.866 115C392.693 115.44 391.373 115.66 389.906 115.66C388.263 115.66 386.723 115.381 385.286 114.824C383.878 114.237 382.646 113.431 381.59 112.404C380.534 111.377 379.698 110.16 379.082 108.752C378.466 107.344 378.158 105.789 378.158 104.088C378.158 102.387 378.451 100.832 379.038 99.424C379.654 97.9867 380.475 96.7547 381.502 95.728C382.558 94.7013 383.775 93.9093 385.154 93.352C386.562 92.7653 388.073 92.472 389.686 92.472C391.182 92.472 392.531 92.692 393.734 93.132C394.937 93.5427 395.978 94.1 396.858 94.804C397.738 95.508 398.457 96.3293 399.014 97.268C399.571 98.1773 399.967 99.116 400.202 100.084L394.218 101.888C394.101 101.477 393.925 101.081 393.69 100.7C393.455 100.289 393.162 99.9373 392.81 99.644C392.458 99.3213 392.033 99.072 391.534 98.896C391.035 98.72 390.463 98.632 389.818 98.632ZM414.959 102.328L423.671 115H415.487L410.339 107.3L408.183 109.632V115H401.495V83.144H408.183V100.48L414.827 93.132H423.495L414.959 102.328ZM466.906 83.804H474.034L465.542 115H458.37L451.726 94.32L445.038 115H437.734L429.242 83.804H436.634L441.782 103.78L448.25 83.804H455.378L461.846 103.824L466.906 83.804ZM486.661 101.448C486.632 101.037 486.529 100.612 486.353 100.172C486.206 99.732 485.957 99.336 485.605 98.984C485.253 98.632 484.798 98.3387 484.241 98.104C483.713 97.8693 483.053 97.752 482.261 97.752C481.557 97.752 480.941 97.8693 480.413 98.104C479.885 98.3387 479.43 98.632 479.049 98.984C478.697 99.336 478.418 99.732 478.213 100.172C478.037 100.612 477.934 101.037 477.905 101.448H486.661ZM492.733 108.708C492.469 109.647 492.058 110.541 491.501 111.392C490.944 112.243 490.24 112.991 489.389 113.636C488.538 114.252 487.541 114.736 486.397 115.088C485.282 115.469 484.036 115.66 482.657 115.66C481.161 115.66 479.724 115.396 478.345 114.868C476.966 114.34 475.749 113.577 474.693 112.58C473.637 111.583 472.801 110.365 472.185 108.928C471.569 107.491 471.261 105.848 471.261 104C471.261 102.24 471.554 100.656 472.141 99.248C472.757 97.8107 473.564 96.5933 474.561 95.596C475.588 94.5987 476.761 93.836 478.081 93.308C479.401 92.7507 480.765 92.472 482.173 92.472C485.576 92.472 488.245 93.4547 490.181 95.42C492.146 97.3853 493.129 100.143 493.129 103.692C493.129 104.161 493.114 104.616 493.085 105.056C493.056 105.467 493.026 105.701 492.997 105.76H477.773C477.802 106.376 477.949 106.948 478.213 107.476C478.506 107.975 478.873 108.415 479.313 108.796C479.782 109.177 480.31 109.471 480.897 109.676C481.484 109.881 482.1 109.984 482.745 109.984C483.977 109.984 484.93 109.72 485.605 109.192C486.309 108.664 486.822 107.975 487.145 107.124L492.733 108.708ZM494.727 115V83.144H501.283V95.2C501.752 94.5253 502.544 93.924 503.659 93.396C504.803 92.868 506.123 92.604 507.619 92.604C509.203 92.604 510.625 92.8973 511.887 93.484C513.148 94.0413 514.204 94.8333 515.055 95.86C515.935 96.8573 516.609 98.06 517.079 99.468C517.548 100.847 517.783 102.357 517.783 104C517.783 105.672 517.519 107.212 516.991 108.62C516.492 110.028 515.773 111.245 514.835 112.272C513.925 113.269 512.825 114.061 511.535 114.648C510.273 115.205 508.88 115.484 507.355 115.484C505.888 115.484 504.612 115.205 503.527 114.648C502.471 114.091 501.693 113.387 501.195 112.536V115H494.727ZM511.095 104.044C511.095 103.135 510.963 102.343 510.699 101.668C510.435 100.964 510.068 100.392 509.599 99.952C509.159 99.512 508.631 99.1893 508.015 98.984C507.428 98.7493 506.812 98.632 506.167 98.632C505.521 98.632 504.891 98.7493 504.275 98.984C503.688 99.1893 503.16 99.512 502.691 99.952C502.251 100.392 501.884 100.964 501.591 101.668C501.327 102.343 501.195 103.135 501.195 104.044C501.195 104.953 501.327 105.745 501.591 106.42C501.884 107.095 502.251 107.667 502.691 108.136C503.16 108.576 503.688 108.913 504.275 109.148C504.891 109.383 505.521 109.5 506.167 109.5C506.812 109.5 507.428 109.397 508.015 109.192C508.631 108.957 509.159 108.62 509.599 108.18C510.068 107.711 510.435 107.139 510.699 106.464C510.963 105.76 511.095 104.953 511.095 104.044ZM538.437 108.444C539.64 108.444 540.769 108.268 541.825 107.916C542.881 107.564 543.805 107.021 544.597 106.288C545.389 105.555 546.005 104.616 546.445 103.472C546.915 102.328 547.149 100.979 547.149 99.424C547.149 97.8693 546.915 96.52 546.445 95.376C546.005 94.232 545.389 93.2933 544.597 92.56C543.805 91.7973 542.881 91.24 541.825 90.888C540.769 90.536 539.64 90.36 538.437 90.36H534.389V108.444H538.437ZM527.437 115V83.804H538.745C541.092 83.804 543.219 84.1707 545.125 84.904C547.061 85.608 548.719 86.6347 550.097 87.984C551.476 89.3333 552.532 90.976 553.265 92.912C554.028 94.848 554.409 97.0187 554.409 99.424C554.409 101.829 554.028 104 553.265 105.936C552.532 107.843 551.476 109.471 550.097 110.82C548.719 112.169 547.061 113.211 545.125 113.944C543.189 114.648 541.048 115 538.701 115H527.437ZM570.354 101.448C570.325 101.037 570.222 100.612 570.046 100.172C569.899 99.732 569.65 99.336 569.298 98.984C568.946 98.632 568.491 98.3387 567.934 98.104C567.406 97.8693 566.746 97.752 565.954 97.752C565.25 97.752 564.634 97.8693 564.106 98.104C563.578 98.3387 563.123 98.632 562.742 98.984C562.39 99.336 562.111 99.732 561.906 100.172C561.73 100.612 561.627 101.037 561.598 101.448H570.354ZM576.426 108.708C576.162 109.647 575.751 110.541 575.194 111.392C574.637 112.243 573.933 112.991 573.082 113.636C572.231 114.252 571.234 114.736 570.09 115.088C568.975 115.469 567.729 115.66 566.35 115.66C564.854 115.66 563.417 115.396 562.038 114.868C560.659 114.34 559.442 113.577 558.386 112.58C557.33 111.583 556.494 110.365 555.878 108.928C555.262 107.491 554.954 105.848 554.954 104C554.954 102.24 555.247 100.656 555.834 99.248C556.45 97.8107 557.257 96.5933 558.254 95.596C559.281 94.5987 560.454 93.836 561.774 93.308C563.094 92.7507 564.458 92.472 565.866 92.472C569.269 92.472 571.938 93.4547 573.874 95.42C575.839 97.3853 576.822 100.143 576.822 103.692C576.822 104.161 576.807 104.616 576.778 105.056C576.749 105.467 576.719 105.701 576.69 105.76H561.466C561.495 106.376 561.642 106.948 561.906 107.476C562.199 107.975 562.566 108.415 563.006 108.796C563.475 109.177 564.003 109.471 564.59 109.676C565.177 109.881 565.793 109.984 566.438 109.984C567.67 109.984 568.623 109.72 569.298 109.192C570.002 108.664 570.515 107.975 570.838 107.124L576.426 108.708ZM590.933 115H584.201L575.225 93.132H582.485L587.545 106.728L592.209 93.132H599.249L590.933 115ZM613.189 101.448C613.159 101.037 613.057 100.612 612.881 100.172C612.734 99.732 612.485 99.336 612.133 98.984C611.781 98.632 611.326 98.3387 610.769 98.104C610.241 97.8693 609.581 97.752 608.789 97.752C608.085 97.752 607.469 97.8693 606.941 98.104C606.413 98.3387 605.958 98.632 605.577 98.984C605.225 99.336 604.946 99.732 604.741 100.172C604.565 100.612 604.462 101.037 604.433 101.448H613.189ZM619.261 108.708C618.997 109.647 618.586 110.541 618.029 111.392C617.471 112.243 616.767 112.991 615.917 113.636C615.066 114.252 614.069 114.736 612.925 115.088C611.81 115.469 610.563 115.66 609.185 115.66C607.689 115.66 606.251 115.396 604.873 114.868C603.494 114.34 602.277 113.577 601.221 112.58C600.165 111.583 599.329 110.365 598.713 108.928C598.097 107.491 597.789 105.848 597.789 104C597.789 102.24 598.082 100.656 598.669 99.248C599.285 97.8107 600.091 96.5933 601.089 95.596C602.115 94.5987 603.289 93.836 604.609 93.308C605.929 92.7507 607.293 92.472 608.701 92.472C612.103 92.472 614.773 93.4547 616.709 95.42C618.674 97.3853 619.657 100.143 619.657 103.692C619.657 104.161 619.642 104.616 619.613 105.056C619.583 105.467 619.554 105.701 619.525 105.76H604.301C604.33 106.376 604.477 106.948 604.741 107.476C605.034 107.975 605.401 108.415 605.841 108.796C606.31 109.177 606.838 109.471 607.425 109.676C608.011 109.881 608.627 109.984 609.273 109.984C610.505 109.984 611.458 109.72 612.133 109.192C612.837 108.664 613.35 107.975 613.673 107.124L619.261 108.708ZM621.254 115V83.144H627.942V115H621.254ZM641.11 109.5C641.756 109.5 642.372 109.397 642.958 109.192C643.545 108.957 644.058 108.62 644.498 108.18C644.968 107.711 645.334 107.139 645.598 106.464C645.892 105.789 646.038 104.983 646.038 104.044C646.038 103.135 645.892 102.343 645.598 101.668C645.334 100.964 644.968 100.392 644.498 99.952C644.058 99.512 643.545 99.1893 642.958 98.984C642.372 98.7493 641.756 98.632 641.11 98.632C640.494 98.632 639.878 98.7493 639.262 98.984C638.676 99.1893 638.148 99.512 637.678 99.952C637.238 100.392 636.872 100.964 636.578 101.668C636.314 102.343 636.182 103.135 636.182 104.044C636.182 104.953 636.314 105.76 636.578 106.464C636.872 107.139 637.238 107.711 637.678 108.18C638.148 108.62 638.676 108.957 639.262 109.192C639.878 109.397 640.494 109.5 641.11 109.5ZM641.11 92.472C642.753 92.472 644.278 92.7653 645.686 93.352C647.094 93.9093 648.312 94.7013 649.338 95.728C650.394 96.7547 651.216 97.972 651.802 99.38C652.418 100.788 652.726 102.343 652.726 104.044C652.726 105.745 652.418 107.315 651.802 108.752C651.216 110.16 650.394 111.377 649.338 112.404C648.312 113.431 647.094 114.237 645.686 114.824C644.278 115.381 642.753 115.66 641.11 115.66C639.468 115.66 637.942 115.381 636.534 114.824C635.126 114.237 633.894 113.431 632.838 112.404C631.812 111.377 630.99 110.16 630.374 108.752C629.788 107.315 629.494 105.745 629.494 104.044C629.494 102.343 629.788 100.788 630.374 99.38C630.99 97.972 631.812 96.7547 632.838 95.728C633.894 94.7013 635.126 93.9093 636.534 93.352C637.942 92.7653 639.468 92.472 641.11 92.472ZM654.249 123.36V93.132H660.717V95.376C661.186 94.672 661.978 94.0413 663.093 93.484C664.208 92.8973 665.557 92.604 667.141 92.604C668.725 92.604 670.148 92.8973 671.409 93.484C672.67 94.0413 673.726 94.8333 674.577 95.86C675.457 96.8573 676.132 98.06 676.601 99.468C677.07 100.847 677.305 102.357 677.305 104C677.305 105.672 677.041 107.212 676.513 108.62C676.014 110.028 675.296 111.245 674.357 112.272C673.448 113.269 672.348 114.061 671.057 114.648C669.796 115.205 668.402 115.484 666.877 115.484C665.469 115.484 664.252 115.279 663.225 114.868C662.198 114.428 661.436 113.9 660.937 113.284V123.36H654.249ZM670.749 104.044C670.749 103.135 670.617 102.343 670.353 101.668C670.089 100.993 669.722 100.436 669.253 99.996C668.784 99.5267 668.241 99.1893 667.625 98.984C667.038 98.7493 666.422 98.632 665.777 98.632C665.132 98.632 664.501 98.7493 663.885 98.984C663.298 99.1893 662.77 99.5267 662.301 99.996C661.861 100.436 661.509 100.993 661.245 101.668C660.981 102.343 660.849 103.135 660.849 104.044C660.849 104.953 660.981 105.745 661.245 106.42C661.509 107.095 661.861 107.667 662.301 108.136C662.77 108.576 663.298 108.913 663.885 109.148C664.501 109.383 665.132 109.5 665.777 109.5C666.422 109.5 667.038 109.397 667.625 109.192C668.241 108.957 668.784 108.62 669.253 108.18C669.722 107.711 670.089 107.139 670.353 106.464C670.617 105.76 670.749 104.953 670.749 104.044ZM693.057 101.448C693.028 101.037 692.925 100.612 692.749 100.172C692.602 99.732 692.353 99.336 692.001 98.984C691.649 98.632 691.194 98.3387 690.637 98.104C690.109 97.8693 689.449 97.752 688.657 97.752C687.953 97.752 687.337 97.8693 686.809 98.104C686.281 98.3387 685.826 98.632 685.445 98.984C685.093 99.336 684.814 99.732 684.609 100.172C684.433 100.612 684.33 101.037 684.301 101.448H693.057ZM699.129 108.708C698.865 109.647 698.454 110.541 697.897 111.392C697.34 112.243 696.636 112.991 695.785 113.636C694.934 114.252 693.937 114.736 692.793 115.088C691.678 115.469 690.432 115.66 689.053 115.66C687.557 115.66 686.12 115.396 684.741 114.868C683.362 114.34 682.145 113.577 681.089 112.58C680.033 111.583 679.197 110.365 678.581 108.928C677.965 107.491 677.657 105.848 677.657 104C677.657 102.24 677.95 100.656 678.537 99.248C679.153 97.8107 679.96 96.5933 680.957 95.596C681.984 94.5987 683.157 93.836 684.477 93.308C685.797 92.7507 687.161 92.472 688.569 92.472C691.972 92.472 694.641 93.4547 696.577 95.42C698.542 97.3853 699.525 100.143 699.525 103.692C699.525 104.161 699.51 104.616 699.481 105.056C699.452 105.467 699.422 105.701 699.393 105.76H684.169C684.198 106.376 684.345 106.948 684.609 107.476C684.902 107.975 685.269 108.415 685.709 108.796C686.178 109.177 686.706 109.471 687.293 109.676C687.88 109.881 688.496 109.984 689.141 109.984C690.373 109.984 691.326 109.72 692.001 109.192C692.705 108.664 693.218 107.975 693.541 107.124L699.129 108.708ZM715.027 99.732C714.646 99.644 714.279 99.5853 713.927 99.556C713.575 99.5267 713.238 99.512 712.915 99.512C712.24 99.512 711.595 99.6147 710.979 99.82C710.363 100.025 709.82 100.363 709.351 100.832C708.882 101.301 708.5 101.917 708.207 102.68C707.943 103.443 707.811 104.367 707.811 105.452V115H701.123V93.132H707.591V96.08C707.884 95.464 708.251 94.9507 708.691 94.54C709.16 94.1293 709.659 93.8067 710.187 93.572C710.715 93.3373 711.243 93.176 711.771 93.088C712.328 92.9707 712.827 92.912 713.267 92.912C713.942 92.912 714.528 92.9853 715.027 93.132V99.732Z" fill="white"/>
<path d="M235.901 146.518C267.543 137.918 350.836 123.799 430.865 136.117" stroke="url(#paint0_linear)" stroke-width="5"/>
<defs>
<linearGradient id="paint0_linear" x1="230.5" y1="140" x2="431" y2="136" gradientUnits="userSpaceOnUse">
<stop stop-color="#2B65CA"/>
<stop offset="1" stop-color="#4E44C4"/>
</linearGradient>
</defs>
</svg>
